<svg xmlns="http://www.w3.org/2000/svg" width="182.091" height="182.092" viewBox="0 0 182.091 182.092">
  <g id="community-engagement_14931679" transform="translate(3 3)">
    <g id="그룹_3365" data-name="그룹 3365" transform="translate(0 0)">
      <path id="패스_6480" data-name="패스 6480" d="M73.126,30.707A82.652,82.652,0,0,1,99.29,23.949a1.787,1.787,0,0,1,1.944,1.78v5.617A10.645,10.645,0,0,1,92.762,41.73a66.024,66.024,0,0,0-13.511,4.465A.891.891,0,0,0,79,47.634L88.87,57.51a1.782,1.782,0,0,1-.6,2.914A50.047,50.047,0,0,0,60.427,88.279a1.781,1.781,0,0,1-2.915.6L47.635,79a.891.891,0,0,0-1.44.254A66.1,66.1,0,0,0,41.73,92.762a10.646,10.646,0,0,1-10.383,8.472H25.729a1.787,1.787,0,0,1-1.78-1.944A83.132,83.132,0,0,1,62.223,36.547" transform="translate(-18.073 -18.073)" fill="none" stroke="#4f5845" stroke-linecap="round" stroke-linejoin="round" stroke-miterlimit="10" stroke-width="6"/>
      <circle id="타원_83" data-name="타원 83" cx="12.92" cy="12.92" r="12.92" fill="none" stroke="#4f5845" stroke-linecap="round" stroke-linejoin="round" stroke-miterlimit="10" stroke-width="6"/>
      <path id="패스_6481" data-name="패스 6481" d="M331.035,92.762a66.027,66.027,0,0,0-4.465-13.511A.891.891,0,0,0,325.13,79l-9.876,9.873a1.782,1.782,0,0,1-2.914-.6,50.047,50.047,0,0,0-27.855-27.847,1.782,1.782,0,0,1-.6-2.915l9.878-9.878a.891.891,0,0,0-.254-1.44A66.1,66.1,0,0,0,280,41.73a10.646,10.646,0,0,1-8.472-10.383V25.729a1.787,1.787,0,0,1,1.944-1.78A83.182,83.182,0,0,1,348.815,99.29a1.787,1.787,0,0,1-1.78,1.944h-5.617A10.645,10.645,0,0,1,331.035,92.762Z" transform="translate(-178.6 -18.073)" fill="none" stroke="#4f5845" stroke-linecap="round" stroke-linejoin="round" stroke-miterlimit="10" stroke-width="6"/>
      <circle id="타원_84" data-name="타원 84" cx="12.92" cy="12.92" r="12.92" transform="translate(150.252)" fill="none" stroke="#4f5845" stroke-linecap="round" stroke-linejoin="round" stroke-miterlimit="10" stroke-width="6"/>
      <path id="패스_6482" data-name="패스 6482" d="M280,331.035a66.027,66.027,0,0,0,13.511-4.465.891.891,0,0,0,.254-1.44l-9.873-9.876a1.782,1.782,0,0,1,.6-2.914,50.047,50.047,0,0,0,27.847-27.855,1.782,1.782,0,0,1,2.915-.6l9.878,9.878a.891.891,0,0,0,1.44-.254A66.1,66.1,0,0,0,331.034,280a10.646,10.646,0,0,1,10.383-8.472h5.618a1.787,1.787,0,0,1,1.78,1.944,83.182,83.182,0,0,1-75.341,75.341,1.787,1.787,0,0,1-1.944-1.78v-5.617A10.645,10.645,0,0,1,280,331.035Z" transform="translate(-178.6 -178.6)" fill="none" stroke="#4f5845" stroke-linecap="round" stroke-linejoin="round" stroke-miterlimit="10" stroke-width="6"/>
      <circle id="타원_85" data-name="타원 85" cx="12.92" cy="12.92" r="12.92" transform="translate(150.252 150.252)" fill="none" stroke="#4f5845" stroke-linecap="round" stroke-linejoin="round" stroke-miterlimit="10" stroke-width="6"/>
      <path id="패스_6483" data-name="패스 6483" d="M70.035,299.746a49.971,49.971,0,0,0,18.243,12.591,1.782,1.782,0,0,1,.6,2.915L79,325.13a.891.891,0,0,0,.254,1.44,66.1,66.1,0,0,0,13.511,4.464,10.646,10.646,0,0,1,8.472,10.383v5.618a1.787,1.787,0,0,1-1.944,1.78,83.182,83.182,0,0,1-75.341-75.341,1.787,1.787,0,0,1,1.78-1.944h5.617A10.645,10.645,0,0,1,41.728,280a66.027,66.027,0,0,0,4.465,13.511.891.891,0,0,0,1.44.254l9.876-9.873a1.782,1.782,0,0,1,2.914.6,49.716,49.716,0,0,0,2.35,5.04" transform="translate(-18.071 -178.6)" fill="none" stroke="#4f5845" stroke-linecap="round" stroke-linejoin="round" stroke-miterlimit="10" stroke-width="6"/>
      <circle id="타원_86" data-name="타원 86" cx="12.92" cy="12.92" r="12.92" transform="translate(0 150.252)" fill="none" stroke="#4f5845" stroke-linecap="round" stroke-linejoin="round" stroke-miterlimit="10" stroke-width="6"/>
      <path id="패스_6484" data-name="패스 6484" d="M206.8,229.594l12.635-10.973h0a20.666,20.666,0,1,0-28.467-29.906,1.586,1.586,0,0,1-2.3,0,20.666,20.666,0,1,0-28.467,29.906h0l27.566,23.941a3.131,3.131,0,0,0,4.106,0l5.367-4.661" transform="translate(-101.768 -120.639)" fill="none" stroke="#4f5845" stroke-linecap="round" stroke-linejoin="round" stroke-miterlimit="10" stroke-width="6"/>
    </g>
  </g>
</svg>
