<svg xmlns="http://www.w3.org/2000/svg" xmlns:xlink="http://www.w3.org/1999/xlink" width="176.091" height="176.092" viewBox="0 0 176.091 176.092">
  <defs>
    <clipPath id="clip-path">
      <path id="path5751" d="M0-682.665H176.091v176.091H0Z" transform="translate(0 682.665)" fill="#4f5845"/>
    </clipPath>
  </defs>
  <g id="g5745" transform="translate(0 0)">
    <g id="g5747" transform="translate(0 0)">
      <g id="g5749" clip-path="url(#clip-path)">
        <g id="g5755" transform="translate(41.405 2.58)">
          <path id="path5757" d="M-22.574-131.5c12.275,17.72,34.974,31.852,38.365,33.9a.826.826,0,0,0,.857,0c4.683-2.835,46.212-28.719,46.212-55.273A24.34,24.34,0,0,0,38.52-177.2a24.336,24.336,0,0,0-21.565,13.043.829.829,0,0,1-1.472,0A24.336,24.336,0,0,0-6.081-177.2a24.34,24.34,0,0,0-24.34,24.34,30.153,30.153,0,0,0,2.027,10.527" transform="translate(30.421 177.205)" fill="none" stroke="#4f5845" stroke-linecap="round" stroke-linejoin="round" stroke-miterlimit="10" stroke-width="6"/>
        </g>
        <g id="g5759" transform="translate(9.883 30.632)">
          <path id="path5761" d="M-41.2-26.558h-9.7a4.616,4.616,0,0,1-4.616-4.616A4.616,4.616,0,0,1-50.9-35.789h9.7a4.616,4.616,0,0,1,4.616,4.616A4.616,4.616,0,0,1-41.2-26.558Z" transform="translate(55.517 35.789)" fill="none" stroke="#4f5845" stroke-linecap="round" stroke-linejoin="round" stroke-miterlimit="10" stroke-width="6"/>
        </g>
        <g id="g5763" transform="translate(13.695 50.657)">
          <path id="path5765" d="M-44.058-25.76l-9.12,3.319A4.615,4.615,0,0,1-59.094-25.2a4.616,4.616,0,0,1,2.759-5.916l9.12-3.32A4.616,4.616,0,0,1-41.3-31.676,4.616,4.616,0,0,1-44.058-25.76Z" transform="translate(59.373 34.714)" fill="none" stroke="#4f5845" stroke-linecap="round" stroke-linejoin="round" stroke-miterlimit="10" stroke-width="6"/>
        </g>
        <g id="g5767" transform="translate(13.695 7.285)">
          <path id="path5769" d="M-44.058-10.353l-9.12-3.319a4.616,4.616,0,0,0-5.916,2.759A4.616,4.616,0,0,0-56.335-5l9.12,3.32A4.616,4.616,0,0,0-41.3-4.437,4.616,4.616,0,0,0-44.058-10.353Z" transform="translate(59.373 13.952)" fill="none" stroke="#4f5845" stroke-linecap="round" stroke-linejoin="round" stroke-miterlimit="10" stroke-width="6"/>
        </g>
        <g id="g5771" transform="translate(147.273 30.632)">
          <path id="path5773" d="M-13.278-26.558h9.7a4.616,4.616,0,0,0,4.616-4.616,4.616,4.616,0,0,0-4.616-4.616h-9.7a4.616,4.616,0,0,0-4.616,4.616A4.616,4.616,0,0,0-13.278-26.558Z" transform="translate(17.893 35.789)" fill="none" stroke="#4f5845" stroke-linecap="round" stroke-linejoin="round" stroke-miterlimit="10" stroke-width="6"/>
        </g>
        <g id="g5775" transform="translate(144.043 50.657)">
          <path id="path5777" d="M-8.74-25.76l9.12,3.319A4.615,4.615,0,0,0,6.3-25.2a4.616,4.616,0,0,0-2.759-5.916l-9.12-3.32A4.616,4.616,0,0,0-11.5-31.676,4.616,4.616,0,0,0-8.74-25.76Z" transform="translate(11.779 34.714)" fill="none" stroke="#4f5845" stroke-linecap="round" stroke-linejoin="round" stroke-miterlimit="10" stroke-width="6"/>
        </g>
        <g id="g5779" transform="translate(144.043 7.285)">
          <path id="path5781" d="M-8.74-10.353l9.12-3.319A4.616,4.616,0,0,1,6.3-10.914,4.616,4.616,0,0,1,3.536-5l-9.12,3.32A4.616,4.616,0,0,1-11.5-4.437,4.616,4.616,0,0,1-8.74-10.353Z" transform="translate(11.779 13.952)" fill="none" stroke="#4f5845" stroke-linecap="round" stroke-linejoin="round" stroke-miterlimit="10" stroke-width="6"/>
        </g>
        <g id="g5783" transform="translate(125.848 88.5)">
          <path id="path5785" d="M-56.338-.643A9.135,9.135,0,0,0-67.162,5.906l-5.1,19.027a7.862,7.862,0,0,1-3.663,4.773" transform="translate(75.922 0.866)" fill="none" stroke="#4f5845" stroke-linecap="round" stroke-linejoin="round" stroke-miterlimit="10" stroke-width="6"/>
        </g>
        <g id="g5787" transform="translate(92.524 76.694)">
          <path id="path5789" d="M-171.184-60.921l-1.086,4.054a7.862,7.862,0,0,1-3.662,4.773l-29.589,17.083a2.745,2.745,0,0,1-4.023-3.087l2.238-8.35a12.315,12.315,0,0,0-8.686-15.076,3.793,3.793,0,0,0-4.652,2.667l-7.535,28.122a73.633,73.633,0,0,0-2.509,19.059V14.347a.374.374,0,0,0,.374.374h28.61a.374.374,0,0,0,.374-.374V3.528A21.09,21.09,0,0,1-195.1-11.441L-160.687-45.6a16.1,16.1,0,0,0,4.21-7.261l6.674-24.908a2.885,2.885,0,0,0-1.684-3.426,12.249,12.249,0,0,0-16.455,8.171" transform="translate(230.69 82.098)" fill="none" stroke="#4f5845" stroke-linecap="round" stroke-linejoin="round" stroke-miterlimit="10" stroke-width="6"/>
        </g>
        <g id="g5791" transform="translate(2.581 76.694)">
          <path id="path5793" d="M-97.116-170.038l-22.775-22.605a16.1,16.1,0,0,1-4.21-7.26l-6.674-24.908a2.885,2.885,0,0,1,1.684-3.426,12.249,12.249,0,0,1,16.455,8.171l4.328,16.152a7.86,7.86,0,0,0,3.662,4.773l29.589,17.083a2.745,2.745,0,0,0,4.023-3.087l-2.237-8.35a12.314,12.314,0,0,1,8.685-15.076,3.793,3.793,0,0,1,4.653,2.667l7.535,28.121a73.638,73.638,0,0,1,2.509,19.059V-132.7a.374.374,0,0,1-.374.374h-28.61a.374.374,0,0,1-.374-.374V-143.52a21.089,21.089,0,0,0-6.233-14.968l-3.008-2.985" transform="translate(130.875 229.145)" fill="none" stroke="#4f5845" stroke-linecap="round" stroke-linejoin="round" stroke-miterlimit="10" stroke-width="6"/>
        </g>
        <g id="g5795" transform="translate(30.66 88.5)">
          <path id="path5797" d="M0-.643A9.135,9.135,0,0,1,10.823,5.906l5.1,19.027a7.862,7.862,0,0,0,3.662,4.773" transform="translate(0 0.866)" fill="none" stroke="#4f5845" stroke-linecap="round" stroke-linejoin="round" stroke-miterlimit="10" stroke-width="6"/>
        </g>
        <g id="g5799" transform="translate(19.499 82.313)">
          <path id="path5801" d="M0-.963A9.135,9.135,0,0,1,11.267,5.474l5.1,19.027a7.861,7.861,0,0,0,3.662,4.773" transform="translate(0 1.298)" fill="none" stroke="#4f5845" stroke-linecap="round" stroke-linejoin="round" stroke-miterlimit="10" stroke-width="6"/>
        </g>
        <g id="g5803" transform="translate(136.564 82.313)">
          <path id="path5805" d="M-57.615-.963A9.135,9.135,0,0,0-68.882,5.474L-73.98,24.5a7.861,7.861,0,0,1-3.663,4.773" transform="translate(77.642 1.298)" fill="none" stroke="#4f5845" stroke-linecap="round" stroke-linejoin="round" stroke-miterlimit="10" stroke-width="6"/>
        </g>
      </g>
    </g>
  </g>
</svg>
