<svg xmlns="http://www.w3.org/2000/svg" xmlns:xlink="http://www.w3.org/1999/xlink" width="178" height="178" viewBox="0 0 178 178">
  <defs>
    <clipPath id="clip-path">
      <rect id="사각형_658" data-name="사각형 658" width="178" height="178" transform="translate(871 3513)" fill="#fff" stroke="#707070" stroke-width="1"/>
    </clipPath>
  </defs>
  <g id="마스크_그룹_49" data-name="마스크 그룹 49" transform="translate(-871 -3513)" clip-path="url(#clip-path)">
    <g id="plant_6041377" transform="translate(871.895 3533.099)">
      <path id="패스_6493" data-name="패스 6493" d="M168.911,138.6H148.388a7.183,7.183,0,0,0-7.181,7.169v1.213H130.652a76.713,76.713,0,0,0-6.791-4.9c-2.221-9.879-10.394-17.731-18.694-17.731-6.986,0-7.852-.738-9.577-2.209-.361-.308-.77-.657-1.253-1.032-6.128-4.758-10.989-7.2-15.723-7.843V101.93l9.924-6.694a42.528,42.528,0,0,0,14.99,3.072A24,24,0,0,0,116.2,94.981c7.351-4.476,11.813-13.172,12.9-25.155.033-.365.065-.687.095-.973.153-1.5.274-2.682-.517-3.827s-1.927-1.47-3.38-1.885c-.271-.077-.575-.164-.913-.265-11.573-3.463-21.34-2.56-28.245,2.611-6.678,5-10.291,13.791-10.494,25.473l-9.618,6.488-9.617-6.485c-.207-11.687-3.824-20.479-10.5-25.479-6.9-5.168-16.667-6.069-28.234-2.608-.347.1-.657.192-.932.27-1.456.415-2.607.743-3.383,1.894s-.654,2.362-.494,3.894c.028.269.059.57.09.9,1.091,11.978,5.553,20.675,12.9,25.151a23.99,23.99,0,0,0,12.675,3.328,42.536,42.536,0,0,0,14.987-3.071l9.926,6.693v11.336c-4.736.641-9.6,3.084-15.724,7.845-.479.372-.887.72-1.247,1.027-1.729,1.473-2.6,2.213-9.581,2.213-7.951,0-14.937,6-17.235,14.525-6.45.8-13.14,4.065-15.426,11.108-7.521-.593-12.624,4.183-13.92,9.751-1.327,5.7,1.31,12.811,10.217,14.956l17,4.24a2.58,2.58,0,0,0,1.248-5.006L11.767,169.68c-5.915-1.425-7.156-5.618-6.42-8.775.833-3.577,4.4-6.825,10.281-5.5l.108.022L64.67,164.24a2.563,2.563,0,0,0,.723.033l25.8-1.863a2.58,2.58,0,0,0-.372-5.146L65.388,159.1a8.133,8.133,0,0,1-6.213-7.88c.177-4,3.735-6.912,9.519-7.8L91.12,140c.663-.046,1.359-.108,2.088-.172,7.408-.652,18.6-1.64,34.891,11.726a2.579,2.579,0,0,0,1.636.585h11.47v8.146a2.58,2.58,0,1,0,5.159,0V145.766a2.043,2.043,0,0,1,2.022-2.01H168.91a2.019,2.019,0,0,1,2.022,2.01V187.9a2.043,2.043,0,0,1-2.022,2.01H148.387a2.043,2.043,0,0,1-2.022-2.01V172.158a2.58,2.58,0,0,0-5.159,0v8.506H118.749a2.586,2.586,0,0,0-.48.045l-33.227,6.3c-2.44.463-9.02-1.228-15.985-3.018-1.8-.462-3.679-.946-5.635-1.433L40.5,176.842a2.579,2.579,0,0,0-1.249,5.005l22.922,5.718c1.943.484,3.815.965,5.6,1.424,7.155,1.839,12.64,3.249,16.328,3.249a10.238,10.238,0,0,0,1.9-.159l32.988-6.256h22.215V187.9a7.183,7.183,0,0,0,7.181,7.169H168.91a7.183,7.183,0,0,0,7.181-7.169V145.766a7.182,7.182,0,0,0-7.181-7.168ZM99.241,69.616c5.543-4.152,13.73-4.773,23.675-1.8.362.108.685.2.973.282l.2.057-.018.17c-.031.305-.066.649-.1,1.034-.937,10.285-4.55,17.62-10.449,21.212-5,3.046-11.72,3.387-19.614,1.041l10.227-6.9a2.58,2.58,0,0,0-2.885-4.277l-10.235,6.9c.755-8.151,3.556-14.229,8.228-17.728ZM47.93,84.717l10.232,6.9c-7.892,2.345-14.607,2-19.609-1.042-5.9-3.592-9.512-10.927-10.45-21.221-.034-.355-.067-.673-.1-.958l-.025-.237.184-.053c.293-.084.622-.177.994-.288,9.941-2.974,18.124-2.354,23.665,1.795,4.673,3.5,7.476,9.579,8.233,17.734L50.814,80.44a2.579,2.579,0,1,0-2.884,4.277Zm44.826,49.972c-.734.065-1.431.127-2.094.171-.072,0-.144.013-.215.024l-22.531,3.442c-9.9,1.512-13.667,7.535-13.894,12.667a12.237,12.237,0,0,0,1.475,6.352l-36.076-6.5c2.4-5.826,9.336-6.836,12.475-6.985a2.58,2.58,0,0,0,2.418-2.127c1.255-7.083,6.551-12.224,12.591-12.224,8.471,0,10.345-1.245,12.927-3.445.334-.285.68-.579,1.067-.88,11.879-9.23,18.387-9.23,30.275,0,.389.3.735.6,1.07.883,2.578,2.2,4.45,3.443,12.924,3.443,4.438,0,9.118,3.716,11.817,8.789C106.511,133.477,98.58,134.175,92.756,134.689Z" transform="translate(0 -60.809)" fill="#4f5845"/>
    </g>
  </g>
</svg>
